<svg width="12" height="12" viewBox="0 0 12 12" fill="none" xmlns="http://www.w3.org/2000/svg">
<path d="M8.44425 0.166748H3.55591C1.43258 0.166748 0.166748 1.43258 0.166748 3.55591V8.43841C0.166748 10.5676 1.43258 11.8334 3.55591 11.8334H8.43841C10.5617 11.8334 11.8276 10.5676 11.8276 8.44425V3.55591C11.8334 1.43258 10.5676 0.166748 8.44425 0.166748ZM9.50008 6.43758H3.55591L5.31175 8.19341C5.48091 8.36258 5.48091 8.64258 5.31175 8.81175C5.22425 8.89925 5.11341 8.94008 5.00258 8.94008C4.89175 8.94008 4.78091 8.89925 4.69341 8.81175L2.19091 6.30925C2.10925 6.22758 2.06258 6.11675 2.06258 6.00008C2.06258 5.88341 2.10925 5.77258 2.19091 5.69091L4.69341 3.18841C4.86258 3.01925 5.14258 3.01925 5.31175 3.18841C5.48091 3.35758 5.48091 3.63758 5.31175 3.80675L3.55591 5.56258H9.50008C9.73925 5.56258 9.93758 5.76091 9.93758 6.00008C9.93758 6.23925 9.73925 6.43758 9.50008 6.43758Z" fill="#999999"/>
</svg>
